<svg width="36" height="36" viewBox="0 0 36 36" fill="none" xmlns="http://www.w3.org/2000/svg">
<g clip-path="url(#clip0_81_233)">
<path d="M27 19.5H19.5V27C19.5 27.825 18.825 28.5 18 28.5C17.175 28.5 16.5 27.825 16.5 27V19.5H9C8.175 19.5 7.5 18.825 7.5 18C7.5 17.175 8.175 16.5 9 16.5H16.5V9C16.5 8.175 17.175 7.5 18 7.5C18.825 7.5 19.5 8.175 19.5 9V16.5H27C27.825 16.5 28.5 17.175 28.5 18C28.5 18.825 27.825 19.5 27 19.5Z" fill="#0F0F0F"/>
</g>
<defs>
<clipPath id="clip0_81_233">
<rect width="36" height="36" fill="white"/>
</clipPath>
</defs>
</svg>
