<svg width="36" height="36" viewBox="0 0 36 36" fill="none" xmlns="http://www.w3.org/2000/svg">
<g clip-path="url(#clip0_102_73)">
<path d="M27.1667 18C26.5036 18 25.8677 17.7366 25.3989 17.2678C24.9301 16.7989 24.6667 16.163 24.6667 15.5C24.6667 14.837 24.9301 14.2011 25.3989 13.7322C25.8677 13.2634 26.5036 13 27.1667 13C27.8297 13 28.4656 13.2634 28.9344 13.7322C29.4033 14.2011 29.6667 14.837 29.6667 15.5C29.6667 16.163 29.4033 16.7989 28.9344 17.2678C28.4656 17.7366 27.8297 18 27.1667 18ZM22.1667 11.3333C21.5036 11.3333 20.8677 11.0699 20.3989 10.6011C19.9301 10.1323 19.6667 9.49637 19.6667 8.83333C19.6667 8.17029 19.9301 7.53441 20.3989 7.06557C20.8677 6.59672 21.5036 6.33333 22.1667 6.33333C22.8297 6.33333 23.4656 6.59672 23.9344 7.06557C24.4033 7.53441 24.6667 8.17029 24.6667 8.83333C24.6667 9.49637 24.4033 10.1323 23.9344 10.6011C23.4656 11.0699 22.8297 11.3333 22.1667 11.3333ZM13.8333 11.3333C13.1703 11.3333 12.5344 11.0699 12.0656 10.6011C11.5967 10.1323 11.3333 9.49637 11.3333 8.83333C11.3333 8.17029 11.5967 7.53441 12.0656 7.06557C12.5344 6.59672 13.1703 6.33333 13.8333 6.33333C14.4964 6.33333 15.1323 6.59672 15.6011 7.06557C16.0699 7.53441 16.3333 8.17029 16.3333 8.83333C16.3333 9.49637 16.0699 10.1323 15.6011 10.6011C15.1323 11.0699 14.4964 11.3333 13.8333 11.3333ZM8.83333 18C8.17029 18 7.53441 17.7366 7.06557 17.2678C6.59672 16.7989 6.33333 16.163 6.33333 15.5C6.33333 14.837 6.59672 14.2011 7.06557 13.7322C7.53441 13.2634 8.17029 13 8.83333 13C9.49637 13 10.1323 13.2634 10.6011 13.7322C11.0699 14.2011 11.3333 14.837 11.3333 15.5C11.3333 16.163 11.0699 16.7989 10.6011 17.2678C10.1323 17.7366 9.49637 18 8.83333 18ZM18 3C14.0218 3 10.2064 4.58035 7.3934 7.3934C4.58035 10.2064 3 14.0218 3 18C3 21.9782 4.58035 25.7936 7.3934 28.6066C10.2064 31.4196 14.0218 33 18 33C18.663 33 19.2989 32.7366 19.7678 32.2678C20.2366 31.7989 20.5 31.163 20.5 30.5C20.5 29.85 20.25 29.2667 19.85 28.8333C19.4667 28.3833 19.2167 27.8 19.2167 27.1667C19.2167 26.5036 19.4801 25.8677 19.9489 25.3989C20.4177 24.9301 21.0536 24.6667 21.7167 24.6667H24.6667C26.8768 24.6667 28.9964 23.7887 30.5592 22.2259C32.122 20.6631 33 18.5435 33 16.3333C33 8.96667 26.2833 3 18 3Z" fill="#FDFDFD"/>
</g>
<defs>
<clipPath id="clip0_102_73">
<rect width="36" height="36" fill="white"/>
</clipPath>
</defs>
</svg>
