<svg width="36" height="36" viewBox="0 0 36 36" fill="none" xmlns="http://www.w3.org/2000/svg">
<g clip-path="url(#clip0_81_237)">
<path d="M24 2.25H7.5C5.85 2.25 4.5 3.6 4.5 5.25V24.75C4.5 25.575 5.175 26.25 6 26.25C6.825 26.25 7.5 25.575 7.5 24.75V6.75C7.5 5.925 8.175 5.25 9 5.25H24C24.825 5.25 25.5 4.575 25.5 3.75C25.5 2.925 24.825 2.25 24 2.25ZM28.5 8.25H13.5C11.85 8.25 10.5 9.6 10.5 11.25V30.75C10.5 32.4 11.85 33.75 13.5 33.75H28.5C30.15 33.75 31.5 32.4 31.5 30.75V11.25C31.5 9.6 30.15 8.25 28.5 8.25Z" fill="#FDFDFD"/>
</g>
<defs>
<clipPath id="clip0_81_237">
<rect width="36" height="36" fill="white"/>
</clipPath>
</defs>
</svg>
