<svg width="36" height="36" viewBox="0 0 36 36" fill="none" xmlns="http://www.w3.org/2000/svg">
<g clip-path="url(#clip0_102_79)">
<path d="M28.5 4.5H7.5C5.85 4.5 4.5 5.85 4.5 7.5V28.5C4.5 30.15 5.85 31.5 7.5 31.5H28.5C30.15 31.5 31.5 30.15 31.5 28.5V7.5C31.5 5.85 30.15 4.5 28.5 4.5ZM9.375 11.25H11.25V9.375C11.25 8.76 11.76 8.25 12.375 8.25C12.99 8.25 13.5 8.76 13.5 9.375V11.25H15.375C15.99 11.25 16.5 11.76 16.5 12.375C16.5 12.99 15.99 13.5 15.375 13.5H13.5V15.375C13.5 15.99 12.99 16.5 12.375 16.5C11.76 16.5 11.25 15.99 11.25 15.375V13.5H9.375C8.76 13.5 8.25 12.99 8.25 12.375C8.25 11.76 8.76 11.25 9.375 11.25ZM27 28.5H7.5L28.5 7.5V27C28.5 27.825 27.825 28.5 27 28.5ZM25.5 24.375C25.5 23.76 24.99 23.25 24.375 23.25H19.125C18.51 23.25 18 23.76 18 24.375C18 24.99 18.51 25.5 19.125 25.5H24.375C24.99 25.5 25.5 24.99 25.5 24.375Z" fill="#FDFDFD"/>
</g>
<defs>
<clipPath id="clip0_102_79">
<rect width="36" height="36" fill="white"/>
</clipPath>
</defs>
</svg>
