<svg width="36" height="36" viewBox="0 0 36 36" fill="none" xmlns="http://www.w3.org/2000/svg">
<g clip-path="url(#clip0_81_266)">
<path d="M13.5 18C13.5 20.49 15.51 22.5 18 22.5C20.49 22.5 22.5 20.49 22.5 18C22.5 15.51 20.49 13.5 18 13.5C15.51 13.5 13.5 15.51 13.5 18Z" fill="#FDFDFD"/>
<path d="M12 13.5C12 12.675 11.325 12 10.5 12H7.635C9.705 8.415 13.575 6 18 6C23.235 6 27.675 9.36 29.31 14.04C29.52 14.625 30.105 15 30.72 15C31.74 15 32.49 13.995 32.16 13.035C30.105 7.185 24.54 3 18 3C13.095 3 8.73 5.37 6 9.015V7.5C6 6.675 5.325 6 4.5 6C3.675 6 3 6.675 3 7.5V13.5C3 14.325 3.675 15 4.5 15H10.5C11.325 15 12 14.325 12 13.5Z" fill="#FDFDFD"/>
<path d="M24 22.5C24 23.325 24.675 24 25.5 24H28.365C26.295 27.585 22.425 30 18 30C12.765 30 8.32503 26.64 6.69003 21.96C6.48003 21.375 5.89503 21 5.28003 21C4.26003 21 3.51003 22.005 3.84003 22.965C5.89503 28.815 11.46 33 18 33C22.905 33 27.27 30.63 30 26.985V28.5C30 29.325 30.675 30 31.5 30C32.325 30 33 29.325 33 28.5V22.5C33 21.675 32.325 21 31.5 21H25.5C24.675 21 24 21.675 24 22.5Z" fill="#FDFDFD"/>
</g>
<defs>
<clipPath id="clip0_81_266">
<rect width="36" height="36" fill="white"/>
</clipPath>
</defs>
</svg>
