<svg width="36" height="36" viewBox="0 0 36 36" fill="none" xmlns="http://www.w3.org/2000/svg">
<g clip-path="url(#clip0_102_85)">
<path d="M6.6 3.75C5.84413 3.75 5.11922 4.05027 4.58475 4.58475C4.05027 5.11922 3.75 5.84413 3.75 6.6L3.75 14.2C3.75 14.9559 4.05027 15.6808 4.58475 16.2153C5.11922 16.7497 5.84413 17.05 6.6 17.05H14.2C14.9559 17.05 15.6808 16.7497 16.2153 16.2153C16.7497 15.6808 17.05 14.9559 17.05 14.2V6.6C17.05 5.84413 16.7497 5.11922 16.2153 4.58475C15.6808 4.05027 14.9559 3.75 14.2 3.75H6.6ZM21.8 3.75C21.0441 3.75 20.3192 4.05027 19.7847 4.58475C19.2503 5.11922 18.95 5.84413 18.95 6.6V14.2C18.95 14.9559 19.2503 15.6808 19.7847 16.2153C20.3192 16.7497 21.0441 17.05 21.8 17.05H29.4C30.1559 17.05 30.8808 16.7497 31.4153 16.2153C31.9497 15.6808 32.25 14.9559 32.25 14.2V6.6C32.25 5.84413 31.9497 5.11922 31.4153 4.58475C30.8808 4.05027 30.1559 3.75 29.4 3.75L21.8 3.75ZM6.6 18.95C5.84413 18.95 5.11922 19.2503 4.58475 19.7847C4.05027 20.3192 3.75 21.0441 3.75 21.8L3.75 29.4C3.75 30.1559 4.05027 30.8808 4.58475 31.4153C5.11922 31.9497 5.84413 32.25 6.6 32.25H14.2C14.9559 32.25 15.6808 31.9497 16.2153 31.4153C16.7497 30.8808 17.05 30.1559 17.05 29.4V21.8C17.05 21.0441 16.7497 20.3192 16.2153 19.7847C15.6808 19.2503 14.9559 18.95 14.2 18.95H6.6ZM21.8 18.95C21.0441 18.95 20.3192 19.2503 19.7847 19.7847C19.2503 20.3192 18.95 21.0441 18.95 21.8V29.4C18.95 30.1559 19.2503 30.8808 19.7847 31.4153C20.3192 31.9497 21.0441 32.25 21.8 32.25H29.4C30.1559 32.25 30.8808 31.9497 31.4153 31.4153C31.9497 30.8808 32.25 30.1559 32.25 29.4V21.8C32.25 21.0441 31.9497 20.3192 31.4153 19.7847C30.8808 19.2503 30.1559 18.95 29.4 18.95H21.8Z" fill="#FDFDFD"/>
</g>
<defs>
<clipPath id="clip0_102_85">
<rect width="36" height="36" fill="white"/>
</clipPath>
</defs>
</svg>
