<svg width="36" height="36" viewBox="0 0 36 36" fill="none" xmlns="http://www.w3.org/2000/svg">
<g clip-path="url(#clip0_81_260)">
<path d="M29.145 19.47C29.205 18.99 29.25 18.51 29.25 18C29.25 17.49 29.205 17.01 29.145 16.53L32.31 14.055C32.595 13.83 32.67 13.425 32.49 13.095L29.49 7.905C29.31 7.575 28.905 7.455 28.575 7.575L24.84 9.075C24.06 8.475 23.22 7.98 22.305 7.605L21.735 3.63C21.69 3.27 21.375 3 21 3H15C14.625 3 14.31 3.27 14.265 3.63L13.695 7.605C12.78 7.98 11.94 8.49 11.16 9.075L7.425 7.575C7.08 7.44 6.69 7.575 6.51 7.905L3.51 13.095C3.315 13.425 3.405 13.83 3.69 14.055L6.855 16.53C6.795 17.01 6.75 17.505 6.75 18C6.75 18.495 6.795 18.99 6.855 19.47L3.69 21.945C3.405 22.17 3.33 22.575 3.51 22.905L6.51 28.095C6.69 28.425 7.095 28.545 7.425 28.425L11.16 26.925C11.94 27.525 12.78 28.02 13.695 28.395L14.265 32.37C14.31 32.73 14.625 33 15 33H21C21.375 33 21.69 32.73 21.735 32.37L22.305 28.395C23.22 28.02 24.06 27.51 24.84 26.925L28.575 28.425C28.92 28.56 29.31 28.425 29.49 28.095L32.49 22.905C32.67 22.575 32.595 22.17 32.31 21.945L29.145 19.47ZM18 23.25C15.105 23.25 12.75 20.895 12.75 18C12.75 15.105 15.105 12.75 18 12.75C20.895 12.75 23.25 15.105 23.25 18C23.25 20.895 20.895 23.25 18 23.25Z" fill="#FDFDFD"/>
</g>
<defs>
<clipPath id="clip0_81_260">
<rect width="36" height="36" fill="white"/>
</clipPath>
</defs>
</svg>
